<mxfile host="app.diagrams.net" agent="Mozilla/5.0 (Windows NT 10.0; Win64; x64) AppleWebKit/537.36 (KHTML, like Gecko) Chrome/139.0.0.0 Safari/537.36" version="28.2.0">
  <diagram name="Page-1" id="L_Vh3q0u-PjzWYZS1K4b">
    <mxGraphModel dx="1665" dy="777" grid="1" gridSize="10" guides="1" tooltips="1" connect="1" arrows="1" fold="1" page="1" pageScale="1" pageWidth="850" pageHeight="1100" math="0" shadow="0">
      <root>
        <mxCell id="0" />
        <mxCell id="1" parent="0" />
        <mxCell id="ji4a9HnDfw8ybzQ3S6Gi-5" value="produces" style="edgeStyle=orthogonalEdgeStyle;rounded=0;orthogonalLoop=1;jettySize=auto;html=1;entryX=0;entryY=0.25;entryDx=0;entryDy=0;" parent="1" source="ji4a9HnDfw8ybzQ3S6Gi-1" target="ji4a9HnDfw8ybzQ3S6Gi-4" edge="1">
          <mxGeometry relative="1" as="geometry" />
        </mxCell>
        <mxCell id="ji4a9HnDfw8ybzQ3S6Gi-6" value="*" style="edgeLabel;html=1;align=center;verticalAlign=middle;resizable=0;points=[];" parent="ji4a9HnDfw8ybzQ3S6Gi-5" vertex="1" connectable="0">
          <mxGeometry x="0.8529" y="2" relative="1" as="geometry">
            <mxPoint y="1" as="offset" />
          </mxGeometry>
        </mxCell>
        <mxCell id="ji4a9HnDfw8ybzQ3S6Gi-7" value="uses" style="edgeStyle=orthogonalEdgeStyle;rounded=0;orthogonalLoop=1;jettySize=auto;html=1;entryX=0.5;entryY=0;entryDx=0;entryDy=0;" parent="1" source="ji4a9HnDfw8ybzQ3S6Gi-1" target="ji4a9HnDfw8ybzQ3S6Gi-2" edge="1">
          <mxGeometry relative="1" as="geometry" />
        </mxCell>
        <mxCell id="ji4a9HnDfw8ybzQ3S6Gi-1" value="&lt;p style=&quot;margin:0px;margin-top:4px;text-align:center;&quot;&gt;&lt;b&gt;SemanticAnalyzer&lt;/b&gt;&lt;/p&gt;&lt;hr size=&quot;1&quot; style=&quot;border-style:solid;&quot;&gt;&lt;p style=&quot;margin:0px;margin-left:4px;&quot;&gt;&lt;br&gt;&lt;/p&gt;&lt;hr size=&quot;1&quot; style=&quot;border-style:solid;&quot;&gt;&lt;p style=&quot;margin:0px;margin-left:4px;&quot;&gt;+ SemanticAnalyzer()&lt;/p&gt;&lt;p style=&quot;margin:0px;margin-left:4px;&quot;&gt;+ SemanticAnalyzer(endpoint: String)&lt;/p&gt;&lt;p style=&quot;margin:0px;margin-left:4px;&quot;&gt;+ getMatchTypes(): MatchType[]&lt;/p&gt;&lt;p style=&quot;margin:0px;margin-left:4px;&quot;&gt;+ getMatchProperties(): MatchProperties[]&lt;/p&gt;&lt;p style=&quot;margin:0px;margin-left:4px;&quot;&gt;+ analyzeTerms(terms: String[], matchTypes: MatchType[], matchProperties: MatchProperty): SemanticAnalysisResponse[]&lt;/p&gt;" style="verticalAlign=top;align=left;overflow=fill;html=1;whiteSpace=wrap;" parent="1" vertex="1">
          <mxGeometry x="30" y="10" width="300" height="270" as="geometry" />
        </mxCell>
        <mxCell id="ji4a9HnDfw8ybzQ3S6Gi-2" value="&lt;p style=&quot;margin:0px;margin-top:4px;text-align:center;&quot;&gt;&lt;b&gt;MatchType&lt;/b&gt;&lt;/p&gt;&lt;hr size=&quot;1&quot; style=&quot;border-style:solid;&quot;&gt;&lt;p style=&quot;margin:0px;margin-left:4px;&quot;&gt;+ type: String&lt;/p&gt;&lt;hr size=&quot;1&quot; style=&quot;border-style:solid;&quot;&gt;&lt;p style=&quot;margin:0px;margin-left:4px;&quot;&gt;+ getType(): String&lt;/p&gt;&lt;p style=&quot;margin:0px;margin-left:4px;&quot;&gt;+ setType(type: String)&lt;/p&gt;" style="verticalAlign=top;align=left;overflow=fill;html=1;whiteSpace=wrap;" parent="1" vertex="1">
          <mxGeometry x="90" y="480" width="160" height="90" as="geometry" />
        </mxCell>
        <mxCell id="ji4a9HnDfw8ybzQ3S6Gi-3" value="&lt;p style=&quot;margin:0px;margin-top:4px;text-align:center;&quot;&gt;&lt;b&gt;MatchProperty&lt;/b&gt;&lt;/p&gt;&lt;hr size=&quot;1&quot; style=&quot;border-style:solid;&quot;&gt;&lt;p style=&quot;margin:0px;margin-left:4px;&quot;&gt;+ property: String&lt;/p&gt;&lt;hr size=&quot;1&quot; style=&quot;border-style:solid;&quot;&gt;&lt;p style=&quot;margin:0px;margin-left:4px;&quot;&gt;+ getProperty(): String&lt;/p&gt;&lt;p style=&quot;margin:0px;margin-left:4px;&quot;&gt;+ setProperty(type: String)&lt;/p&gt;" style="verticalAlign=top;align=left;overflow=fill;html=1;whiteSpace=wrap;" parent="1" vertex="1">
          <mxGeometry x="265" y="410" width="160" height="90" as="geometry" />
        </mxCell>
        <mxCell id="ji4a9HnDfw8ybzQ3S6Gi-4" value="&lt;p style=&quot;margin:0px;margin-top:4px;text-align:center;&quot;&gt;&lt;b&gt;SemanticAnalysisResponse&lt;/b&gt;&lt;/p&gt;&lt;hr size=&quot;1&quot; style=&quot;border-style:solid;&quot;&gt;&lt;p style=&quot;margin:0px;margin-left:4px;&quot;&gt;&lt;br&gt;&lt;/p&gt;&lt;hr size=&quot;1&quot; style=&quot;border-style:solid;&quot;&gt;&lt;p style=&quot;margin:0px;margin-left:4px;&quot;&gt;+ getMatches&lt;span style=&quot;background-color: transparent; color: light-dark(rgb(0, 0, 0), rgb(255, 255, 255));&quot;&gt;(): Match&lt;/span&gt;&lt;/p&gt;&lt;p style=&quot;margin:0px;margin-left:4px;&quot;&gt;&lt;span style=&quot;background-color: transparent; color: light-dark(rgb(0, 0, 0), rgb(255, 255, 255));&quot;&gt;+ getTotalNumberOfMatches(): Integer&lt;/span&gt;&lt;/p&gt;" style="verticalAlign=top;align=left;overflow=fill;html=1;whiteSpace=wrap;" parent="1" vertex="1">
          <mxGeometry x="580" y="110" width="180" height="170" as="geometry" />
        </mxCell>
        <mxCell id="ji4a9HnDfw8ybzQ3S6Gi-8" value="uses" style="edgeStyle=orthogonalEdgeStyle;rounded=0;orthogonalLoop=1;jettySize=auto;html=1;entryX=0.356;entryY=-0.022;entryDx=0;entryDy=0;entryPerimeter=0;" parent="1" source="ji4a9HnDfw8ybzQ3S6Gi-1" target="ji4a9HnDfw8ybzQ3S6Gi-3" edge="1">
          <mxGeometry relative="1" as="geometry" />
        </mxCell>
        <mxCell id="ji4a9HnDfw8ybzQ3S6Gi-12" style="edgeStyle=orthogonalEdgeStyle;rounded=0;orthogonalLoop=1;jettySize=auto;html=1;exitX=0.002;exitY=0.38;exitDx=0;exitDy=0;exitPerimeter=0;" parent="1" source="ji4a9HnDfw8ybzQ3S6Gi-10" edge="1">
          <mxGeometry relative="1" as="geometry">
            <mxPoint x="430" y="470" as="targetPoint" />
            <Array as="points">
              <mxPoint x="531" y="470" />
              <mxPoint x="480" y="470" />
              <mxPoint x="480" y="471" />
            </Array>
          </mxGeometry>
        </mxCell>
        <mxCell id="ji4a9HnDfw8ybzQ3S6Gi-13" value="uses" style="edgeLabel;html=1;align=center;verticalAlign=middle;resizable=0;points=[];" parent="ji4a9HnDfw8ybzQ3S6Gi-12" vertex="1" connectable="0">
          <mxGeometry x="0.1344" relative="1" as="geometry">
            <mxPoint as="offset" />
          </mxGeometry>
        </mxCell>
        <mxCell id="ji4a9HnDfw8ybzQ3S6Gi-14" value="uses&lt;div&gt;&lt;br&gt;&lt;/div&gt;" style="edgeStyle=orthogonalEdgeStyle;rounded=0;orthogonalLoop=1;jettySize=auto;html=1;" parent="1" edge="1">
          <mxGeometry relative="1" as="geometry">
            <mxPoint x="530" y="495" as="sourcePoint" />
            <mxPoint x="250" y="550" as="targetPoint" />
            <Array as="points">
              <mxPoint x="470" y="495" />
              <mxPoint x="470" y="550" />
            </Array>
          </mxGeometry>
        </mxCell>
        <mxCell id="ji4a9HnDfw8ybzQ3S6Gi-10" value="&lt;p style=&quot;margin:0px;margin-top:4px;text-align:center;&quot;&gt;&lt;b&gt;Match&lt;/b&gt;&lt;/p&gt;&lt;hr size=&quot;1&quot; style=&quot;border-style:solid;&quot;&gt;&lt;p style=&quot;margin:0px;margin-left:4px;&quot;&gt;&amp;nbsp;&lt;/p&gt;&lt;hr size=&quot;1&quot; style=&quot;border-style:solid;&quot;&gt;&lt;p style=&quot;margin:0px;margin-left:4px;&quot;&gt;+ getMatchingTerm(): String&lt;/p&gt;&lt;p style=&quot;margin:0px;margin-left:4px;&quot;&gt;+ getMatchProperty(): MatchProperty&lt;/p&gt;&lt;p style=&quot;margin:0px;margin-left:4px;&quot;&gt;+ getMatchType(): MatchType&lt;/p&gt;&lt;p style=&quot;margin:0px;margin-left:4px;&quot;&gt;+ getTermCode(): String&lt;/p&gt;&lt;p style=&quot;margin:0px;margin-left:4px;&quot;&gt;+ getVocabulary(): String&lt;/p&gt;&lt;p style=&quot;margin:0px;margin-left:4px;&quot;&gt;+ getConceptURI(): String&lt;/p&gt;" style="verticalAlign=top;align=left;overflow=fill;html=1;whiteSpace=wrap;" parent="1" vertex="1">
          <mxGeometry x="530" y="360" width="270" height="220" as="geometry" />
        </mxCell>
        <mxCell id="ji4a9HnDfw8ybzQ3S6Gi-11" value="" style="endArrow=diamondThin;endFill=0;endSize=24;html=1;rounded=0;exitX=0.5;exitY=0;exitDx=0;exitDy=0;entryX=0.453;entryY=0.991;entryDx=0;entryDy=0;entryPerimeter=0;" parent="1" source="ji4a9HnDfw8ybzQ3S6Gi-10" target="ji4a9HnDfw8ybzQ3S6Gi-4" edge="1">
          <mxGeometry width="160" relative="1" as="geometry">
            <mxPoint x="350" y="390" as="sourcePoint" />
            <mxPoint x="660" y="320" as="targetPoint" />
          </mxGeometry>
        </mxCell>
      </root>
    </mxGraphModel>
  </diagram>
</mxfile>
